<mxfile host="app.diagrams.net" modified="2023-11-09T04:12:19.177Z" agent="Mozilla/5.0 (Macintosh; Intel Mac OS X 10_15_7) AppleWebKit/537.36 (KHTML, like Gecko) Chrome/118.0.0.0 Safari/537.36" version="22.1.0" etag="XGA8WzzxqwIzKU35W7Ye" type="github">
  <diagram name="第 1 页" id="8HPmvmsDGgbfHRuXqa-N">
    <mxGraphModel>
      <root>
        <mxCell id="0" />
        <mxCell id="1" parent="0" />
      </root>
    </mxGraphModel>
  </diagram>
</mxfile>
